<svg width="16" height="14" viewBox="0 0 16 14" fill="none" xmlns="http://www.w3.org/2000/svg">
<path d="M7.89515 13.6157C5.29613 13.6157 3.37505 13.0392 2.13048 11.8864C0.904475 10.7336 0.291473 9.05017 0.291473 6.83608C0.291473 4.6404 0.913616 2.96609 2.15761 1.8133C3.40217 0.642242 5.31468 0.0566406 7.89515 0.0566406C10.4927 0.0566406 12.4138 0.642242 13.6584 1.8133C14.9215 2.96609 15.5523 4.6404 15.5523 6.83608C15.5523 9.05017 14.9301 10.7336 13.6855 11.8864C12.4409 13.0392 10.5113 13.6157 7.89515 13.6157ZM7.89515 9.85528C8.7358 9.85528 9.33952 9.61751 9.70633 9.14166C10.0903 8.66596 10.2829 7.89738 10.2829 6.83608C10.2829 5.79319 10.0903 5.03375 9.70633 4.55805C9.33952 4.06393 8.7358 3.81687 7.89515 3.81687C7.07163 3.81687 6.47646 4.06393 6.10966 4.55805C5.74428 5.03375 5.56159 5.79319 5.56159 6.83608C5.56159 7.89738 5.74428 8.66596 6.10966 9.14166C6.47646 9.61751 7.07163 9.85528 7.89515 9.85528Z" fill="#FB8351"/>
</svg>
